<svg width="25" height="25" viewBox="0 0 25 25" fill="none" xmlns="http://www.w3.org/2000/svg">
<path d="M19.6948 19.3876H7.13284L4.06384 2.5136C4.02794 2.31152 3.92252 2.12835 3.76585 1.99578C3.60917 1.8632 3.41108 1.78956 3.20584 1.7876H1.21484M19.6948 19.3876C18.4798 19.3876 17.4948 20.3726 17.4948 21.5876C17.4948 22.8026 18.4798 23.7876 19.6948 23.7876C20.9099 23.7876 21.8948 22.8026 21.8948 21.5876C21.8948 20.3726 20.9099 19.3876 19.6948 19.3876ZM6.32984 14.9876H20.1458C20.5572 14.9889 20.9558 14.8451 21.2717 14.5815C21.5876 14.318 21.8004 13.9515 21.8728 13.5466L23.2148 6.1876H4.73484M10.4548 21.5876C10.4548 22.8026 9.46987 23.7876 8.25484 23.7876C7.03982 23.7876 6.05484 22.8026 6.05484 21.5876C6.05484 20.3726 7.03982 19.3876 8.25484 19.3876C9.46987 19.3876 10.4548 20.3726 10.4548 21.5876Z" stroke="black" stroke-opacity="0.3" stroke-width="2" stroke-linecap="round" stroke-linejoin="round"/>
</svg>
