<svg width="32" height="32" viewBox="0 0 32 32" fill="none" xmlns="http://www.w3.org/2000/svg">
<path fill-rule="evenodd" clip-rule="evenodd" d="M17.3334 3.99984C17.3334 3.26346 16.7365 2.6665 16.0001 2.6665C15.2637 2.6665 14.6668 3.26346 14.6668 3.99984V4.99984H13.9236C10.9568 4.99984 8.5013 7.30652 8.31611 10.2675L8.02143 14.9788C7.90908 16.775 7.30603 18.5061 6.27795 19.9833C5.34904 21.318 6.17601 23.1614 7.79058 23.3552L12.3334 23.9004V25.3332C12.3334 27.3582 13.975 28.9998 16.0001 28.9998C18.0252 28.9998 19.6668 27.3582 19.6668 25.3332V23.9004L24.2096 23.3552C25.8242 23.1614 26.6511 21.318 25.7222 19.9833C24.6941 18.5061 24.091 16.775 23.9788 14.9788L23.6841 10.2675C23.4989 7.30652 21.0434 4.99984 18.0766 4.99984H17.3334V3.99984ZM14.3334 25.3332C14.3334 26.2537 15.0796 26.9998 16.0001 26.9998C16.9206 26.9998 17.6668 26.2537 17.6668 25.3332V24.3332H14.3334V25.3332Z" fill="black"/>
</svg>
