<svg width="33" height="32" viewBox="0 0 33 32" fill="none" xmlns="http://www.w3.org/2000/svg">
<g id="Book-Open">
<path id="Vector" fill-rule="evenodd" clip-rule="evenodd" d="M15.6847 24.8479C15.8552 24.9503 16.0377 24.9957 16.2149 24.9934C16.3921 24.9957 16.5747 24.9503 16.7452 24.8479L18.2589 23.9398C21.2276 22.1586 24.8583 21.8677 28.0727 23.1534C29.2584 23.6277 30.5483 22.7545 30.5483 21.4774V5.93216C30.5483 5.16156 30.0791 4.4686 29.3636 4.1824C25.2235 2.52636 20.5472 2.90105 16.7236 5.19521L16.2149 5.50044L15.7063 5.19521C11.8826 2.90105 7.20635 2.52636 3.06623 4.1824C2.35075 4.4686 1.88159 5.16156 1.88159 5.93216V21.4774C1.88159 22.7545 3.17145 23.6277 4.35722 23.1534C7.57162 21.8677 11.2023 22.1586 14.1709 23.9398L15.6847 24.8479ZM3.88159 6.0106V21.193C7.60931 19.7957 11.7773 20.1713 15.2 22.2247L15.2149 22.2338V7.23281L14.6772 6.9102C11.4119 4.95101 7.42338 4.61989 3.88159 6.0106ZM17.2299 22.2247L17.2149 22.2338V7.23281L17.7527 6.9102C21.018 4.95101 25.0065 4.61989 28.5483 6.0106V21.193C24.8205 19.7957 20.6525 20.1713 17.2299 22.2247Z" fill="#737373"/>
<path id="Vector_2" d="M12.5816 25.3898C9.88316 23.8157 6.54636 23.8157 3.84788 25.3898L3.71089 25.4697C3.23384 25.748 3.0727 26.3602 3.35098 26.8373C3.62926 27.3144 4.24157 27.4756 4.71862 27.1973L4.85562 27.1173C6.93137 25.9065 9.49814 25.9065 11.5739 27.1173L13.0236 27.963C14.9956 29.1133 17.434 29.1133 19.406 27.963L20.8556 27.1173C22.9314 25.9065 25.4981 25.9065 27.574 27.1173L27.7109 27.1973C28.188 27.4756 28.8002 27.3144 29.0785 26.8373C29.3568 26.3602 29.1957 25.748 28.7186 25.4697L28.5817 25.3898C25.8832 23.8157 22.5464 23.8157 19.8478 25.3898L18.3982 26.2354C17.049 27.0225 15.3805 27.0225 14.0313 26.2354L12.5816 25.3898Z" fill="#737373"/>
</g>
</svg>
