<svg width="51" height="51" viewBox="0 0 51 51" fill="none" xmlns="http://www.w3.org/2000/svg">
<rect x="0.944336" y="0.20459" width="50" height="50" rx="25" fill="black" fill-opacity="0.1"/>
<path d="M33.5508 16.1601H31.7819V15.4268C31.7819 14.6935 31.3102 14.2046 30.6025 14.2046C29.895 14.2046 29.4233 14.6935 29.4233 15.4268V16.1601H24.942C24.2344 16.1601 23.7627 16.649 23.7627 17.3824C23.7627 18.1157 24.2344 18.6046 24.942 18.6046H29.5412V19.3379C29.5412 20.0713 30.0129 20.5601 30.7206 20.5601C31.4281 20.5601 31.8998 20.0713 31.8998 19.3379V18.6046H33.6687C34.4942 18.6046 35.3197 19.3379 35.3197 20.3157V22.0268H16.4511V20.3157C16.4511 19.3379 17.2766 18.6046 18.22 18.6046H19.989V19.3379C19.989 20.0713 20.4607 20.5601 21.1683 20.5601C21.8758 20.5601 22.3475 20.0713 22.3475 19.3379V17.3824V15.4268C22.3475 14.6935 21.8758 14.2046 21.1683 14.2046C20.4607 14.2046 19.989 14.6935 19.989 15.4268V16.1601H18.22C15.8615 16.1601 14.0925 17.9935 14.0925 20.3157V32.049C14.0925 34.3713 15.8615 36.2046 18.22 36.2046H33.6687C35.9094 36.2046 37.7962 34.3713 37.7962 32.049V20.3157C37.6783 17.9935 35.9094 16.1601 33.5508 16.1601ZM33.5508 33.7601H18.22C17.2766 33.7601 16.4511 33.0268 16.4511 32.049V24.4713H35.3197V32.049C35.3197 33.0268 34.4942 33.7601 33.5508 33.7601Z" fill="#929292"/>
</svg>
