<svg width="33" height="32" viewBox="0 0 33 32" fill="none" xmlns="http://www.w3.org/2000/svg">
<g id="FirstAid">
<path id="Vector" d="M12.2148 20H5.21484C4.94963 20 4.69527 19.8946 4.50774 19.7071C4.3202 19.5196 4.21484 19.2652 4.21484 19V13C4.21484 12.7348 4.3202 12.4804 4.50774 12.2929C4.69527 12.1054 4.94963 12 5.21484 12H12.2148V5C12.2148 4.73478 12.3202 4.48043 12.5077 4.29289C12.6953 4.10536 12.9496 4 13.2148 4H19.2148C19.4801 4 19.7344 4.10536 19.922 4.29289C20.1095 4.48043 20.2148 4.73478 20.2148 5V12H27.2148C27.4801 12 27.7344 12.1054 27.922 12.2929C28.1095 12.4804 28.2148 12.7348 28.2148 13V19C28.2148 19.2652 28.1095 19.5196 27.922 19.7071C27.7344 19.8946 27.4801 20 27.2148 20H20.2148V27C20.2148 27.2652 20.1095 27.5196 19.922 27.7071C19.7344 27.8946 19.4801 28 19.2148 28H13.2148C12.9496 28 12.6953 27.8946 12.5077 27.7071C12.3202 27.5196 12.2148 27.2652 12.2148 27V20Z" stroke="#737373" stroke-width="2" stroke-linecap="round" stroke-linejoin="round"/>
</g>
</svg>
