<svg width="32" height="32" viewBox="0 0 32 32" fill="none" xmlns="http://www.w3.org/2000/svg">
<g id="Home">
<path id="Vector" fill-rule="evenodd" clip-rule="evenodd" d="M18.077 7.37905C16.9163 6.26524 15.0835 6.26524 13.9228 7.37905L7.75423 13.2982C7.6031 13.4431 7.50143 13.6321 7.46365 13.8381C6.72481 17.8673 6.67027 21.9921 7.30233 26.0394L7.45235 27.0001H11.421V18.7183C11.421 18.1659 11.8687 17.7183 12.421 17.7183H19.5788C20.1311 17.7183 20.5788 18.1659 20.5788 18.7183V27.0001H24.5475L24.6975 26.0394C25.3295 21.9921 25.275 17.8673 24.5362 13.8381C24.4984 13.6321 24.3967 13.4431 24.2456 13.2982L18.077 7.37905ZM12.5381 5.93596C14.4727 4.07961 17.5271 4.07961 19.4618 5.93596L25.6303 11.8551C26.0844 12.2908 26.3899 12.8584 26.5034 13.4774C27.2827 17.7275 27.3403 22.0787 26.6735 26.3479L26.4326 27.8913C26.3328 28.5295 25.7831 29.0001 25.1371 29.0001H19.5788C19.0266 29.0001 18.5788 28.5523 18.5788 28.0001V19.7183H13.421V28.0001C13.421 28.5523 12.9732 29.0001 12.421 29.0001H6.86266C6.21669 29.0001 5.66697 28.5295 5.5673 27.8913L5.32629 26.3479C4.65955 22.0787 4.71709 17.7275 5.49646 13.4774C5.60997 12.8584 5.91541 12.2908 6.3695 11.8551L12.5381 5.93596Z" fill="#737373"/>
</g>
</svg>
