<svg width="32" height="33" viewBox="0 0 32 33" fill="none" xmlns="http://www.w3.org/2000/svg">
<path d="M18.4267 4.80389C18.4267 4.53662 18.2671 4.2952 18.0212 4.1905C17.7752 4.08581 17.4905 4.13809 17.2979 4.32334L14.9273 6.60277C11.3977 9.99665 8.41525 13.9169 6.08615 18.224C6.03131 18.3209 6 18.4328 6 18.5521C6 18.9203 6.29848 19.2188 6.66667 19.2188H12.4133V28.8039C12.4133 29.0679 12.5691 29.3071 12.8106 29.4137C13.0521 29.5204 13.3337 29.4745 13.5289 29.2967L14.5896 28.3305C18.3025 24.9483 21.4536 20.9967 23.9243 16.6239L24.5804 15.4628C24.6971 15.2564 24.6953 15.0036 24.5757 14.7988C24.4563 14.594 24.2371 14.4681 24 14.4681H18.4267V4.80389Z" fill="black"/>
</svg>
