<svg width="21" height="17" viewBox="0 0 21 17" fill="none" xmlns="http://www.w3.org/2000/svg">
<path fill-rule="evenodd" clip-rule="evenodd" d="M0.929688 5.63743C0.929688 2.55115 3.63728 0.174805 6.8154 0.174805C8.45365 0.174805 9.89517 0.942965 10.9297 1.9369C11.9642 0.942965 13.4057 0.174805 15.044 0.174805C18.2221 0.174805 20.9297 2.55115 20.9297 5.63743C20.9297 7.7516 20.0281 9.61069 18.7791 11.1822C17.5321 12.7511 15.9011 14.0826 14.3394 15.1645C13.7428 15.5778 13.1394 15.9589 12.5872 16.2402C12.0685 16.5043 11.4722 16.7462 10.9297 16.7462C10.3872 16.7462 9.79083 16.5043 9.2722 16.2402C8.71997 15.9589 8.1165 15.5778 7.52001 15.1645C5.95832 14.0826 4.32725 12.7511 3.08034 11.1822C1.83126 9.61069 0.929688 7.7516 0.929688 5.63743ZM6.8154 1.88909C4.43912 1.88909 2.64397 3.63663 2.64397 5.63743C2.64397 7.24143 3.32488 8.7348 4.42236 10.1156C5.52201 11.4991 7.0016 12.7198 8.49625 13.7554C9.0618 14.1471 9.59449 14.4805 10.0503 14.7126C10.5395 14.9618 10.8231 15.0319 10.9297 15.0319C11.0363 15.0319 11.3199 14.9618 11.8091 14.7126C12.2649 14.4805 12.7976 14.1471 13.3632 13.7554C14.8578 12.7198 16.3373 11.4991 17.437 10.1156C18.5345 8.7348 19.2154 7.24143 19.2154 5.63743C19.2154 3.63663 17.4202 1.88909 15.044 1.88909C13.6792 1.88909 12.4049 2.70443 11.6092 3.73928C11.4469 3.9503 11.1959 4.07396 10.9297 4.07396C10.6635 4.07396 10.4124 3.9503 10.2501 3.73928C9.45449 2.70443 8.18014 1.88909 6.8154 1.88909Z" fill="black" fill-opacity="0.7"/>
</svg>
