<svg width="32" height="32" viewBox="0 0 32 32" fill="none" xmlns="http://www.w3.org/2000/svg">
<path fill-rule="evenodd" clip-rule="evenodd" d="M9.74185 10.3441L10.1993 14.4608L9.27364 14.5346C7.98284 14.6377 6.92884 15.6081 6.7196 16.886C6.23735 19.8312 6.23735 22.8352 6.7196 25.7804C6.92884 27.0582 7.98284 28.0285 9.27364 28.1316L11.2685 28.2909C14.418 28.5422 17.5825 28.5422 20.7321 28.2909L22.7269 28.1316C24.0177 28.0285 25.0717 27.0582 25.2809 25.7804C25.7632 22.8352 25.7632 19.8312 25.2809 16.886C25.0717 15.6081 24.0177 14.6377 22.7269 14.5346L21.8012 14.4608L22.2585 10.344C22.3125 9.85875 22.3125 9.36896 22.2585 8.88365L22.2282 8.61047C21.9062 5.71261 19.6281 3.41973 16.7324 3.07905C16.246 3.02183 15.7545 3.02183 15.2681 3.07905C12.3723 3.41973 10.0942 5.7126 9.77221 8.61045L9.74185 8.88365C9.68793 9.36896 9.68793 9.85875 9.74185 10.3441ZM16.4986 5.06536C16.1676 5.0264 15.8329 5.0264 15.5017 5.06536C13.5302 5.29729 11.9792 6.85837 11.76 8.83132L11.7296 9.10452C11.692 9.44303 11.692 9.78467 11.7296 10.1232L12.1947 14.3088C14.729 14.1462 17.2713 14.1462 19.8057 14.3088L20.2708 10.1232C20.3084 9.78467 20.3084 9.44303 20.2708 9.10452L20.2405 8.83132C20.0212 6.85837 18.4702 5.29729 16.4986 5.06536ZM16.0002 19.3332C14.8957 19.3332 14.0002 20.2286 14.0002 21.3332C14.0002 22.4377 14.8957 23.3332 16.0002 23.3332C17.1048 23.3332 18.0002 22.4377 18.0002 21.3332C18.0002 20.2286 17.1048 19.3332 16.0002 19.3332Z" fill="black"/>
</svg>
