<svg width="24" height="25" viewBox="0 0 24 25" fill="none" xmlns="http://www.w3.org/2000/svg">
<path d="M9.5 16.0376C9.08579 16.0376 8.75 16.3734 8.75 16.7876C8.75 17.2018 9.08579 17.5376 9.5 17.5376H11.25V19.2876C11.25 19.7018 11.5858 20.0376 12 20.0376C12.4142 20.0376 12.75 19.7018 12.75 19.2876V17.5376H14.5C14.9142 17.5376 15.25 17.2018 15.25 16.7876C15.25 16.3734 14.9142 16.0376 14.5 16.0376H12.75V14.2876C12.75 13.8734 12.4142 13.5376 12 13.5376C11.5858 13.5376 11.25 13.8734 11.25 14.2876V16.0376H9.5Z" fill="#B1B1B1"/>
<path fill-rule="evenodd" clip-rule="evenodd" d="M7.24991 6.24877V7.48655C6.88062 7.5144 6.51151 7.54551 6.14263 7.57986C4.47355 7.73532 3.19727 9.13599 3.19727 10.8123V18.7629C3.19727 20.4392 4.47355 21.8399 6.14263 21.9953C10.039 22.3582 13.9607 22.3582 17.8572 21.9953C19.5262 21.8399 20.8025 20.4392 20.8025 18.7629V10.8123C20.8025 9.13599 19.5262 7.73532 17.8572 7.57986C17.4883 7.54551 17.1192 7.51441 16.7499 7.48655V6.24877C16.7499 5.38252 16.1162 4.64663 15.2595 4.51813L14.0396 4.33514C12.6874 4.13231 11.3124 4.13231 9.96023 4.33514L8.74031 4.51813C7.88365 4.64663 7.24991 5.38252 7.24991 6.24877ZM13.8171 5.81855C12.6124 5.63784 11.3874 5.63784 10.1827 5.81855L8.96282 6.00153C8.84044 6.01989 8.74991 6.12502 8.74991 6.24877V7.39136C10.9151 7.2798 13.0847 7.2798 15.2499 7.39136V6.24877C15.2499 6.12502 15.1594 6.01989 15.037 6.00153L13.8171 5.81855ZM17.718 9.0734C13.9142 8.71912 10.0856 8.71912 6.28174 9.0734C5.38385 9.15703 4.69727 9.91052 4.69727 10.8123V11.0376H19.3025V10.8123C19.3025 9.91052 18.6159 9.15703 17.718 9.0734ZM19.3025 12.5376H4.69727V18.7629C4.69727 19.6647 5.38385 20.4182 6.28174 20.5018C10.0856 20.8561 13.9142 20.8561 17.718 20.5018C18.6159 20.4182 19.3025 19.6647 19.3025 18.7629V12.5376Z" fill="#B1B1B1"/>
</svg>
