<svg width="51" height="51" viewBox="0 0 51 51" fill="none" xmlns="http://www.w3.org/2000/svg">
<circle cx="25.8818" cy="25.7876" r="24.5" fill="#E6E6E6" stroke="#929292"/>
<path fill-rule="evenodd" clip-rule="evenodd" d="M21.0415 20.7501C21.0415 18.0117 23.2614 15.7917 25.9998 15.7917C28.7382 15.7917 30.9582 18.0117 30.9582 20.7501C30.9582 23.4885 28.7382 25.7084 25.9998 25.7084C23.2614 25.7084 21.0415 23.4885 21.0415 20.7501ZM25.9998 17.5417C24.2279 17.5417 22.7915 18.9782 22.7915 20.7501C22.7915 22.522 24.2279 23.9584 25.9998 23.9584C27.7718 23.9584 29.2082 22.522 29.2082 20.7501C29.2082 18.9782 27.7718 17.5417 25.9998 17.5417Z" fill="#929292"/>
<path fill-rule="evenodd" clip-rule="evenodd" d="M21.3335 29.2083C19.8837 29.2083 18.7085 30.3836 18.7085 31.8333V33.2196C18.7085 33.2407 18.7238 33.2587 18.7446 33.2621C23.5498 34.0467 28.4505 34.0467 33.2557 33.2621C33.2765 33.2587 33.2918 33.2407 33.2918 33.2196V31.8333C33.2918 30.3836 32.1165 29.2083 30.6668 29.2083H30.2691C30.2384 29.2083 30.2079 29.2132 30.1786 29.2226L29.1688 29.5524C27.1099 30.2247 24.8904 30.2247 22.8315 29.5524L21.8217 29.2226C21.7925 29.2132 21.7619 29.2083 21.7312 29.2083H21.3335ZM16.9585 31.8333C16.9585 29.417 18.9172 27.4583 21.3335 27.4583H21.7312C21.9464 27.4583 22.1603 27.4923 22.3649 27.5591L23.3747 27.8889C25.0807 28.4458 26.9196 28.4458 28.6256 27.8889L29.6354 27.5591C29.84 27.4923 30.0539 27.4583 30.2691 27.4583H30.6668C33.0831 27.4583 35.0418 29.417 35.0418 31.8333V33.2196C35.0418 34.0983 34.4049 34.8476 33.5376 34.9892C28.5457 35.8042 23.4546 35.8042 18.4626 34.9892C17.5954 34.8476 16.9585 34.0983 16.9585 33.2196V31.8333Z" fill="#929292"/>
</svg>
