<svg width="33" height="33" viewBox="0 0 33 33" fill="none" xmlns="http://www.w3.org/2000/svg">
<g id="Shopping Bag">
<path id="Vector" fill-rule="evenodd" clip-rule="evenodd" d="M10.5965 10.054V9.89411C10.5965 7.00379 12.5533 4.48014 15.3526 3.76034C16.3873 3.49427 17.4723 3.49427 18.507 3.76034C21.3063 4.48014 23.2631 7.00379 23.2631 9.89413V10.054H25.2646C26.0263 10.054 26.6727 10.6126 26.7833 11.3663L27.0747 13.3562C27.6489 17.2741 27.6489 21.2549 27.0747 25.1728C26.7975 27.0648 25.2718 28.5276 23.3698 28.7248L22.5313 28.8117C18.807 29.198 15.0526 29.198 11.3283 28.8117L10.4898 28.7248C8.58773 28.5276 7.06201 27.0648 6.78479 25.1728C6.21073 21.2549 6.21073 17.2741 6.78479 13.3562L7.07636 11.3663C7.18679 10.6126 7.83324 10.054 8.59495 10.054H10.5965ZM15.8506 5.69731C16.5586 5.51527 17.301 5.51527 18.009 5.69731C19.9242 6.18982 21.2631 7.91653 21.2631 9.89413V10.054H12.5965V9.89411C12.5965 7.91653 13.9353 6.18982 15.8506 5.69731ZM10.5965 12.054V15.054C10.5965 15.6062 11.0442 16.054 11.5965 16.054C12.1487 16.054 12.5965 15.6062 12.5965 15.054V12.054H21.2631V15.054C21.2631 15.6062 21.7109 16.054 22.2631 16.054C22.8154 16.054 23.2631 15.6062 23.2631 15.054V12.054H24.8626L25.0959 13.6461C25.6418 17.3718 25.6418 21.1572 25.0959 24.8829C24.9513 25.8697 24.1555 26.6326 23.1635 26.7354L22.325 26.8225C18.7378 27.1945 15.1218 27.1945 11.5346 26.8225L10.6961 26.7354C9.70403 26.6326 8.90825 25.8697 8.76367 24.8829C8.21777 21.1572 8.21777 17.3718 8.76367 13.6461L8.99695 12.054H10.5965Z" fill="black"/>
</g>
</svg>
