<svg width="47" height="47" viewBox="0 0 47 47" fill="none" xmlns="http://www.w3.org/2000/svg">
<rect x="0.214844" y="0.787598" width="46" height="46" rx="11" fill="black" fill-opacity="0.1"/>
<path d="M30.6948 30.3876H18.1328L15.0638 13.5136C15.0279 13.3115 14.9225 13.1284 14.7658 12.9958C14.6092 12.8632 14.4111 12.7896 14.2058 12.7876H12.2148M30.6948 30.3876C29.4798 30.3876 28.4948 31.3726 28.4948 32.5876C28.4948 33.8026 29.4798 34.7876 30.6948 34.7876C31.9099 34.7876 32.8948 33.8026 32.8948 32.5876C32.8948 31.3726 31.9099 30.3876 30.6948 30.3876ZM17.3298 25.9876H31.1458C31.5572 25.9889 31.9558 25.8451 32.2717 25.5815C32.5876 25.318 32.8004 24.9515 32.8728 24.5466L34.2148 17.1876H15.7348M21.4548 32.5876C21.4548 33.8026 20.4699 34.7876 19.2548 34.7876C18.0398 34.7876 17.0548 33.8026 17.0548 32.5876C17.0548 31.3726 18.0398 30.3876 19.2548 30.3876C20.4699 30.3876 21.4548 31.3726 21.4548 32.5876Z" stroke="black" stroke-opacity="0.3" stroke-width="2" stroke-linecap="round" stroke-linejoin="round"/>
</svg>
