<svg width="33" height="32" viewBox="0 0 33 32" fill="none" xmlns="http://www.w3.org/2000/svg">
<g id="Sparkle">
<path id="Vector" d="M17.5523 21.9375L15.1523 28.45C15.0813 28.6413 14.9534 28.8064 14.7858 28.9229C14.6182 29.0395 14.4189 29.102 14.2148 29.102C14.0107 29.102 13.8114 29.0395 13.6438 28.9229C13.4762 28.8064 13.3483 28.6413 13.2773 28.45L10.8773 21.9375C10.8267 21.8 10.7468 21.6752 10.6432 21.5716C10.5396 21.468 10.4148 21.3881 10.2773 21.3375L3.76481 18.9375C3.57343 18.8664 3.40838 18.7385 3.29182 18.5709C3.17527 18.4033 3.11279 18.2041 3.11279 18C3.11279 17.7958 3.17527 17.5966 3.29182 17.429C3.40838 17.2614 3.57343 17.1335 3.76481 17.0625L10.2773 14.6625C10.4148 14.6118 10.5396 14.5319 10.6432 14.4283C10.7468 14.3248 10.8267 14.1999 10.8773 14.0625L13.2773 7.54996C13.3483 7.35859 13.4762 7.19353 13.6438 7.07698C13.8114 6.96042 14.0107 6.89795 14.2148 6.89795C14.4189 6.89795 14.6182 6.96042 14.7858 7.07698C14.9534 7.19353 15.0813 7.35859 15.1523 7.54996L17.5523 14.0625C17.603 14.1999 17.6828 14.3248 17.7864 14.4283C17.89 14.5319 18.0148 14.6118 18.1523 14.6625L24.6648 17.0625C24.8562 17.1335 25.0212 17.2614 25.1378 17.429C25.2543 17.5966 25.3168 17.7958 25.3168 18C25.3168 18.2041 25.2543 18.4033 25.1378 18.5709C25.0212 18.7385 24.8562 18.8664 24.6648 18.9375L18.1523 21.3375C18.0148 21.3881 17.89 21.468 17.7864 21.5716C17.6828 21.6752 17.603 21.8 17.5523 21.9375Z" stroke="#737373" stroke-width="2" stroke-linecap="round" stroke-linejoin="round"/>
<path id="Vector_2" d="M22.2148 2V8" stroke="#737373" stroke-width="2" stroke-linecap="round" stroke-linejoin="round"/>
<path id="Vector_3" d="M25.2148 5H19.2148" stroke="#737373" stroke-width="2" stroke-linecap="round" stroke-linejoin="round"/>
<path id="Vector_4" d="M28.2148 9V13" stroke="#737373" stroke-width="2" stroke-linecap="round" stroke-linejoin="round"/>
<path id="Vector_5" d="M30.2148 11H26.2148" stroke="#737373" stroke-width="2" stroke-linecap="round" stroke-linejoin="round"/>
</g>
</svg>
