<svg width="47" height="47" viewBox="0 0 47 47" fill="none" xmlns="http://www.w3.org/2000/svg">
<rect x="0.349609" y="0.174805" width="46" height="46" rx="11" fill="black" fill-opacity="0.1"/>
<path fill-rule="evenodd" clip-rule="evenodd" d="M23.3496 13.726C19.6927 13.726 16.8556 16.0163 16.3715 18.8029H18.8368C19.3041 18.8029 19.6829 19.1818 19.6829 19.6491V27.5465C19.6829 28.0138 19.3041 28.3927 18.8368 28.3927H15.4522C13.7387 28.3927 12.3496 27.0036 12.3496 25.2901V21.9055C12.3496 20.4708 13.3234 19.2636 14.646 18.9087C15.0764 14.9553 18.9201 12.0337 23.3496 12.0337C27.7792 12.0337 31.6229 14.9553 32.0532 18.9087C33.3759 19.2636 34.3496 20.4708 34.3496 21.9055V25.2901C34.3496 26.7288 33.3704 27.9388 32.0421 28.2899C31.6802 30.8977 29.4417 32.9055 26.7342 32.9055H25.442C25.1072 33.7325 24.2965 34.3157 23.3496 34.3157C22.1034 34.3157 21.0932 33.3055 21.0932 32.0593C21.0932 30.8131 22.1034 29.8029 23.3496 29.8029C24.2965 29.8029 25.1072 30.3862 25.442 31.2132H26.7342C28.4681 31.2132 29.9208 30.0098 30.3029 28.3927H27.8624C27.3951 28.3927 27.0163 28.0138 27.0163 27.5465V19.6491C27.0163 19.1818 27.3951 18.8029 27.8624 18.8029H30.3278C29.8436 16.0163 27.0066 13.726 23.3496 13.726ZM15.4522 20.4952C14.6733 20.4952 14.0419 21.1266 14.0419 21.9055V25.2901C14.0419 26.069 14.6733 26.7004 15.4522 26.7004H17.9906V20.4952H15.4522ZM32.6573 21.9055C32.6573 21.1266 32.026 20.4952 31.247 20.4952H28.7086V26.7004H31.247C32.026 26.7004 32.6573 26.069 32.6573 25.2901V21.9055Z" fill="#939292"/>
</svg>
