<svg width="41" height="41" viewBox="0 0 41 41" fill="none" xmlns="http://www.w3.org/2000/svg">
<rect x="0.599609" y="0.387207" width="40" height="40" rx="20" fill="#E6E6E6"/>
<path d="M28.1624 14.2H13.0374" stroke="#939292" stroke-width="1.5" stroke-linecap="round" stroke-linejoin="round"/>
<path d="M18.5369 18.3247V23.8247" stroke="#939292" stroke-width="1.5" stroke-linecap="round" stroke-linejoin="round"/>
<path d="M22.6624 18.3247V23.8247" stroke="#939292" stroke-width="1.5" stroke-linecap="round" stroke-linejoin="round"/>
<path d="M26.7874 14.2V27.2625C26.7874 27.4448 26.7149 27.6197 26.586 27.7486C26.4571 27.8775 26.2822 27.95 26.0999 27.95H15.0999C14.9175 27.95 14.7426 27.8775 14.6137 27.7486C14.4848 27.6197 14.4124 27.4448 14.4124 27.2625V14.2" stroke="#939292" stroke-width="1.5" stroke-linecap="round" stroke-linejoin="round"/>
<path d="M24.0369 14.2V12.825C24.0369 12.4603 23.892 12.1105 23.6341 11.8527C23.3763 11.5948 23.0265 11.45 22.6619 11.45H18.5369C18.1722 11.45 17.8225 11.5948 17.5646 11.8527C17.3067 12.1105 17.1619 12.4603 17.1619 12.825V14.2" stroke="#939292" stroke-width="1.5" stroke-linecap="round" stroke-linejoin="round"/>
</svg>
