<svg width="32" height="32" viewBox="0 0 32 32" fill="none" xmlns="http://www.w3.org/2000/svg">
<path d="M16 5C13.2386 5 11 7.23857 11 10C11 12.7614 13.2386 15 16 15C18.7615 15 21 12.7614 21 10C21 7.23857 18.7615 5 16 5Z" fill="black"/>
<path d="M10.6665 17.6665C7.90508 17.6665 5.6665 19.905 5.6665 22.6665V24.2509C5.6665 25.2552 6.39434 26.1114 7.38553 26.2733C13.0906 27.2048 18.909 27.2048 24.6141 26.2733C25.6053 26.1114 26.3332 25.2552 26.3332 24.2509V22.6665C26.3332 19.905 24.0946 17.6665 21.3332 17.6665H20.8786C20.6326 17.6665 20.3882 17.7054 20.1544 17.7817L19.0004 18.1586C17.0506 18.7952 14.949 18.7952 12.9993 18.1586L11.8453 17.7817C11.6114 17.7054 11.367 17.6665 11.121 17.6665H10.6665Z" fill="black"/>
</svg>
